<svg xmlns="http://www.w3.org/2000/svg" xmlns:xlink="http://www.w3.org/1999/xlink" width="500" zoomAndPan="magnify" viewBox="0 0 375 374.999991" height="500" preserveAspectRatio="xMidYMid meet" version="1.2"><g id="f3684d516e"><path style=" stroke:none;fill-rule:nonzero;fill:#fdfdfd;fill-opacity:1;" d="M 252.375 178.125 C 254.101562 179.46875 255.417969 180.882812 256.734375 182.625 L 257.78125 183.984375 L 258.277344 184.644531 C 258.792969 185.324219 258.792969 185.324219 259.613281 186.171875 C 260.25 187.125 260.25 187.125 260.449219 188.429688 C 260.457031 188.945312 260.449219 189.464844 260.4375 189.984375 L 260.421875 190.871094 C 260.277344 195.289062 259.515625 199.652344 258.75 204 L 258.617188 204.753906 C 254.1875 229.890625 244.960938 254.582031 234.667969 277.859375 C 233.664062 280.132812 232.675781 282.414062 231.6875 284.695312 C 231.378906 285.410156 231.066406 286.128906 230.757812 286.84375 C 229.746094 289.171875 228.757812 291.503906 227.8125 293.859375 C 225.101562 300.519531 222.316406 307.054688 217.875 312.75 C 217.242188 313.660156 216.632812 314.585938 216.023438 315.515625 C 212.691406 320.554688 209.222656 325.484375 205.667969 330.371094 C 204.859375 331.496094 204.050781 332.621094 203.25 333.75 L 202.875 332.625 C 203.097656 331.699219 203.097656 331.699219 203.484375 330.578125 L 203.917969 329.296875 L 204.402344 327.902344 L 204.898438 326.457031 C 205.25 325.429688 205.601562 324.402344 205.953125 323.375 C 206.511719 321.769531 207.058594 320.164062 207.609375 318.554688 C 208.152344 316.957031 208.699219 315.363281 209.246094 313.765625 C 210.589844 309.855469 211.910156 305.9375 213.210938 302.015625 L 213.722656 300.476562 C 214.054688 299.472656 214.390625 298.46875 214.722656 297.464844 C 215.636719 294.710938 216.554688 291.960938 217.472656 289.207031 L 218.921875 284.851562 L 219.410156 283.398438 L 219.75 282.375 C 217.914062 286.152344 216.097656 289.925781 214.5 293.8125 C 213.484375 296.273438 212.398438 298.703125 211.242188 301.101562 L 210.773438 302.082031 L 210.285156 303.089844 C 207.457031 308.972656 204.714844 314.890625 202.171875 320.90625 C 200.355469 325.199219 198.414062 329.421875 196.421875 333.636719 C 194.683594 337.316406 192.976562 341.011719 191.296875 344.71875 L 190.941406 345.503906 C 190.167969 347.210938 189.394531 348.917969 188.625 350.625 L 188.050781 351.894531 C 187.117188 353.96875 186.183594 356.046875 185.25 358.125 C 183.457031 357.621094 182.0625 356.835938 180.5625 355.757812 L 179.945312 355.328125 C 179.332031 354.894531 178.726562 354.453125 178.125 354 L 177.496094 353.539062 C 176.523438 352.78125 175.90625 352.1875 175.359375 351.070312 L 175.125 350.25 L 175.773438 349.585938 C 180.351562 344.738281 184.058594 339.285156 187.125 333.375 L 187.484375 332.683594 C 188.242188 331.214844 188.972656 329.738281 189.695312 328.253906 C 189.996094 327.636719 190.300781 327.023438 190.601562 326.410156 C 193.089844 321.386719 195.40625 316.300781 197.625 311.15625 L 197.988281 310.316406 C 199.460938 306.925781 200.753906 303.566406 201.75 300 L 201.15625 301.320312 C 198.050781 308.121094 194.148438 314.222656 189.75 320.25 L 189.160156 321.0625 C 187.222656 323.734375 185.324219 326.34375 182.914062 328.617188 C 182.257812 329.242188 181.683594 329.894531 181.101562 330.585938 C 172.652344 340.367188 172.652344 340.367188 168 342 C 164.214844 336.449219 160.804688 330.601562 158.25 324.375 L 159.65625 324.5625 C 166.683594 325.238281 172.914062 324.496094 179.570312 322.15625 C 180.464844 321.847656 181.328125 321.582031 182.25 321.375 L 182.25 320.625 L 181.5 321 C 175.996094 321.335938 170.8125 320.582031 165.75 318.375 C 161.511719 316.25 158.015625 313.265625 154.5 310.125 L 155.25 309.75 C 155.933594 309.976562 156.613281 310.222656 157.289062 310.476562 C 161.039062 311.664062 164.851562 311.632812 168.71875 311.015625 C 174.195312 309.703125 179.375 307.105469 184.125 304.125 L 183.011719 303.875 C 174.773438 301.96875 167.65625 298.394531 161.386719 292.695312 C 159.609375 291.023438 157.9375 289.40625 156.75 287.25 L 157.957031 287.566406 L 159.5625 287.976562 L 160.355469 288.183594 C 164.890625 289.339844 169.359375 289.542969 173.925781 288.398438 C 175.855469 287.757812 178.160156 286.839844 179.625 285.375 L 178.722656 285.359375 C 169.078125 285.160156 161.273438 283.996094 152.71875 279.328125 L 151.867188 278.863281 C 150.242188 277.949219 149 277.007812 147.75 275.625 C 149.632812 275.949219 151.414062 276.554688 153.222656 277.160156 C 160.03125 279.363281 167.585938 279.261719 174.554688 277.84375 C 178.488281 276.949219 182.40625 275.589844 186 273.75 L 185.371094 273.820312 C 184.410156 273.921875 183.445312 274.023438 182.484375 274.125 L 181.496094 274.234375 C 177.972656 274.597656 174.621094 274.589844 171.117188 274.054688 L 170.144531 273.910156 C 167.175781 273.429688 164.429688 272.574219 161.625 271.5 L 161.625 271.125 L 162.378906 271.109375 C 171.949219 270.875 180.804688 269.9375 189.144531 264.878906 C 191.121094 263.625 192.886719 262.183594 194.625 260.625 L 195.828125 259.597656 C 200.019531 255.957031 202.871094 251.648438 205.691406 246.90625 C 206.992188 244.757812 208.570312 243.21875 210.523438 241.636719 C 221.167969 232.988281 228.507812 221.070312 233.625 208.5 C 236.230469 201.648438 238.554688 194.398438 239.625 187.125 L 240 187.125 C 239.785156 192.414062 239.265625 197.644531 238.640625 202.898438 L 238.492188 204.15625 C 237.234375 214.710938 235.554688 225.15625 233.203125 235.523438 L 233.023438 236.320312 C 232.160156 240.109375 231.078125 243.804688 229.875 247.5 C 240.0625 237.3125 245.160156 211.144531 248.785156 197.699219 C 250.457031 191.238281 251.574219 184.746094 252.375 178.125 M 202.125 298.125 L 202.5 299.25 Z M 165.765625 70.546875 C 166.5 70.875 166.5 70.875 167.074219 71.601562 L 167.625 72.5625 L 168.25 73.652344 L 168.914062 74.835938 L 169.609375 76.054688 C 171.425781 79.25 173.175781 82.480469 174.914062 85.71875 C 176.945312 89.5 179.097656 93.1875 181.5 96.75 C 180.640625 92.28125 179.730469 87.824219 178.75 83.382812 L 178.519531 82.335938 C 178.132812 80.597656 177.746094 78.863281 177.355469 77.125 L 176.921875 75.179688 L 176.714844 74.273438 C 176.429688 72.972656 176.25 71.839844 176.25 70.5 C 177.390625 71.011719 178.210938 71.601562 179.117188 72.460938 L 179.886719 73.1875 L 180.679688 73.945312 L 181.460938 74.679688 C 182.226562 75.410156 182.988281 76.140625 183.75 76.875 L 184.445312 77.539062 C 186.039062 79.089844 187.410156 80.742188 188.742188 82.523438 L 189.378906 83.367188 C 189.800781 83.933594 190.226562 84.5 190.648438 85.070312 C 191.195312 85.796875 191.742188 86.523438 192.292969 87.246094 C 195.503906 91.53125 197.820312 96.164062 199.5 101.25 C 199.308594 98.253906 198.828125 95.40625 198.140625 92.484375 L 197.839844 91.203125 C 196.488281 85.585938 194.855469 80.054688 192 75 L 191.527344 74.148438 C 191.191406 73.554688 190.847656 72.960938 190.5 72.375 C 193.816406 72.792969 197.246094 75.007812 199.882812 76.96875 C 200.800781 77.777344 201.65625 78.613281 202.5 79.5 L 203.371094 80.375 C 205.613281 82.726562 207.28125 85.308594 208.875 88.125 L 209.285156 88.832031 C 215.804688 100.132812 218.902344 113.800781 220.050781 126.710938 C 220.113281 127.363281 220.199219 128.015625 220.292969 128.664062 C 220.394531 129.75 220.40625 130.5625 220.125 131.625 C 219.03125 132.878906 217.816406 133.800781 216.375 134.625 L 215.625 134.625 L 215.660156 133.316406 C 215.703125 131.679688 215.742188 130.042969 215.785156 128.40625 C 215.804688 127.703125 215.820312 127.003906 215.839844 126.300781 C 215.957031 121.824219 216.027344 117.351562 216 112.875 L 215.667969 114.332031 C 215.242188 116.148438 214.804688 117.960938 214.355469 119.773438 C 213.984375 121.285156 213.621094 122.792969 213.261719 124.308594 C 212.8125 126.195312 212.351562 128.082031 211.878906 129.964844 C 211.6875 130.722656 211.507812 131.484375 211.328125 132.246094 C 209.894531 138.371094 209.894531 138.371094 208.347656 140.179688 C 207.414062 140.859375 206.570312 141.332031 205.5 141.75 L 204.140625 142.289062 C 203.847656 142.359375 203.550781 142.429688 203.25 142.5 C 203.445312 139.332031 203.796875 136.246094 204.375 133.125 L 203.625 133.125 L 203.484375 133.925781 C 203.050781 135.917969 202.3125 137.816406 201.632812 139.734375 C 201.488281 140.164062 201.339844 140.59375 201.1875 141.035156 L 200.746094 142.28125 L 200.347656 143.417969 C 199.875 144.375 199.875 144.375 199.128906 145.039062 C 198.261719 145.570312 197.476562 145.957031 196.5 146.25 C 194.726562 146.011719 193.5 144.882812 192.101562 143.839844 C 190.449219 142.5625 188.886719 141.179688 187.316406 139.800781 C 185.425781 138.144531 183.484375 136.542969 181.5 135 C 182.558594 136.652344 183.707031 138.136719 184.992188 139.617188 C 186.636719 141.535156 188.222656 143.484375 189.75 145.5 C 189.085938 145.710938 189.085938 145.710938 188.25 145.875 C 187.242188 145.59375 186.25 145.265625 185.273438 144.890625 L 184.472656 144.609375 C 182.722656 143.949219 181.601562 143.210938 180.375 141.75 C 179.816406 140.945312 179.285156 140.125 178.78125 139.289062 L 178.3125 138.527344 C 177.75 137.601562 177.1875 136.675781 176.625 135.75 L 175.507812 133.914062 C 174.269531 131.875 173.03125 129.835938 171.792969 127.796875 C 168.996094 123.183594 166.183594 118.582031 163.289062 114.027344 C 161.410156 111.0625 159.632812 108.039062 157.875 105 C 159.355469 111.253906 161.1875 117.40625 163.101562 123.539062 C 163.292969 124.15625 163.484375 124.773438 163.675781 125.394531 C 164.054688 126.617188 164.4375 127.835938 164.824219 129.058594 C 165 129.621094 165.175781 130.1875 165.351562 130.753906 L 165.605469 131.542969 C 165.804688 132.1875 165.96875 132.84375 166.125 133.5 L 165.75 134.625 C 161.089844 129.011719 161.089844 129.011719 159.1875 126.1875 C 157.347656 123.460938 155.265625 120.953125 153.171875 118.421875 C 152.085938 117.09375 151.042969 115.734375 150 114.375 C 150.453125 117.070312 151.027344 119.734375 151.726562 122.378906 L 152.28125 124.519531 C 152.570312 125.628906 152.863281 126.738281 153.152344 127.847656 C 153.4375 128.929688 153.71875 130.011719 154 131.097656 L 154.265625 132.101562 L 154.507812 133.039062 L 154.722656 133.859375 C 154.875 134.625 154.875 134.625 154.875 136.125 C 152.640625 135.980469 152.640625 135.980469 151.875 135.75 C 150.839844 134.585938 150.316406 133.328125 149.746094 131.886719 L 149.460938 131.179688 C 149.261719 130.679688 149.058594 130.175781 148.859375 129.671875 C 148.324219 128.324219 147.785156 126.984375 147.246094 125.640625 L 146.90625 124.800781 C 145.679688 121.75 144.410156 118.71875 143.132812 115.6875 L 142.804688 114.910156 C 142.203125 113.480469 141.601562 112.050781 141 110.625 C 141.523438 115.492188 142.261719 120.300781 143.078125 125.128906 C 143.230469 126.03125 143.382812 126.9375 143.535156 127.84375 L 143.675781 128.667969 C 143.925781 130.171875 144.046875 131.601562 144 133.125 C 143.40625 132.976562 142.8125 132.816406 142.21875 132.65625 L 141.214844 132.394531 C 140.078125 131.929688 139.527344 131.449219 138.75 130.5 C 135.792969 124.519531 135.71875 116.753906 136.125 110.25 C 136.792969 103.09375 139.402344 96.128906 143.464844 90.210938 C 145.476562 87.382812 147.671875 84.699219 150 82.125 L 150.542969 81.523438 C 160.863281 70.25 160.863281 70.25 165.765625 70.546875 "/><path style=" stroke:none;fill-rule:nonzero;fill:#fdfdfd;fill-opacity:1;" d="M 227.625 157.5 L 228 158.25 C 227.867188 160.03125 227.570312 161.796875 227.308594 163.566406 L 227.183594 164.40625 C 226.027344 172.179688 224.417969 179.867188 222.824219 187.5625 C 222.503906 189.113281 222.191406 190.664062 221.875 192.214844 C 221.5625 193.742188 221.25 195.269531 220.9375 196.792969 C 220.789062 197.507812 220.644531 198.21875 220.5 198.933594 C 217.183594 215.21875 212.320312 230.421875 201.164062 243.09375 C 199.8125 244.570312 198.484375 245.933594 196.875 247.125 L 195.75 246.75 C 195.273438 245.945312 194.839844 245.121094 194.445312 244.277344 L 194.066406 243.496094 C 193.65625 242.644531 193.25 241.792969 192.84375 240.9375 L 191.988281 239.15625 C 189.464844 233.878906 187.042969 228.554688 184.640625 223.222656 C 182.746094 219.015625 180.777344 214.851562 178.664062 210.75 C 177.75 208.957031 177.75 208.957031 177.75 208.125 L 177 208.125 L 177.261719 209.082031 C 178.386719 213.214844 179.371094 217.378906 180.34375 221.550781 L 180.859375 223.769531 C 181.21875 225.308594 181.578125 226.847656 181.9375 228.386719 C 182.394531 230.351562 182.851562 232.316406 183.3125 234.28125 C 183.667969 235.804688 184.023438 237.328125 184.375 238.851562 C 184.542969 239.578125 184.714844 240.300781 184.882812 241.023438 C 185.121094 242.039062 185.355469 243.050781 185.589844 244.066406 L 185.796875 244.953125 C 186.148438 246.457031 186.480469 247.964844 186.800781 249.472656 L 186.988281 250.367188 C 187.132812 251.300781 187.148438 252.183594 187.125 253.125 C 183.621094 254.75 179.753906 255.804688 175.875 255.75 C 175.828125 252.074219 175.941406 248.441406 176.195312 244.773438 C 176.503906 240.304688 176.746094 235.855469 176.625 231.375 C 172.851562 235.996094 172.851562 235.996094 169.449219 240.886719 L 168.75 241.875 L 168 241.875 C 168.058594 239.117188 168.511719 236.519531 169.195312 233.859375 L 169.40625 233.015625 C 170.152344 230.230469 171.328125 227.628906 172.5 225 C 171.089844 225.933594 169.683594 226.867188 168.277344 227.800781 C 167.800781 228.117188 167.320312 228.4375 166.84375 228.753906 C 166.152344 229.210938 165.460938 229.667969 164.773438 230.128906 L 164.132812 230.550781 C 163.15625 231.199219 162.246094 231.859375 161.359375 232.625 L 160.5 233.25 L 159.375 232.875 C 159.613281 230.109375 160.359375 227.546875 161.109375 224.882812 C 162.503906 219.855469 163.582031 214.789062 164.5625 209.664062 L 164.71875 208.835938 C 164.859375 208.09375 165 207.351562 165.140625 206.613281 C 165.375 205.5 165.375 205.5 165.75 204.75 L 165 204.75 L 164.765625 205.664062 C 163.648438 208.558594 161.628906 211.253906 159.375 213.375 C 156.953125 215.207031 154.449219 216.113281 151.5 216.75 L 151.941406 216.226562 C 154.421875 213.117188 155.417969 209.691406 156.375 205.875 L 155.613281 206.203125 C 153.207031 207.132812 151.0625 207.519531 148.5 207.515625 L 147.671875 207.515625 C 146.542969 207.492188 145.613281 207.421875 144.5625 206.992188 L 144 206.625 L 144 205.875 L 144.988281 205.847656 C 149.371094 205.636719 152.878906 204.679688 156.617188 202.371094 C 158.769531 200.855469 160.140625 199.4375 161.554688 197.25 C 162.648438 195.636719 163.589844 194.351562 165.328125 193.382812 C 167.371094 192.429688 169.234375 192.324219 171.46875 192.351562 L 172.316406 192.355469 C 173 192.363281 173.6875 192.367188 174.375 192.375 L 178.125 201.375 L 178.5 194.25 L 179.25 193.875 C 179.976562 194.210938 179.976562 194.210938 180.863281 194.742188 L 181.847656 195.328125 L 182.90625 195.960938 C 189.0625 199.546875 194.734375 201.816406 201.914062 201.867188 C 202.183594 201.871094 202.453125 201.871094 202.734375 201.875 C 204.726562 201.847656 206.570312 201.492188 208.5 201 L 207.617188 200.632812 C 206.535156 200.183594 205.457031 199.730469 204.375 199.277344 C 203.90625 199.082031 203.441406 198.886719 202.972656 198.695312 C 202.300781 198.414062 201.628906 198.132812 200.957031 197.851562 L 199.730469 197.339844 C 198.75 196.875 198.75 196.875 198 196.125 L 199.238281 195.78125 C 205.695312 193.953125 211.273438 191.621094 216.257812 186.949219 C 219.300781 183.621094 221.160156 179.46875 222.179688 175.105469 C 222.742188 172.460938 223.144531 169.839844 223.15625 167.132812 C 223.179688 163.023438 223.179688 163.023438 223.5 161.625 C 224.441406 160.238281 225.476562 159.503906 226.875 158.625 Z M 184.5 205.875 C 185.078125 207.523438 185.945312 208.914062 186.914062 210.351562 L 187.414062 211.097656 C 188.863281 213.230469 190.433594 215.246094 192.039062 217.257812 C 193.261719 218.785156 194.4375 220.34375 195.609375 221.90625 L 196.203125 222.691406 C 197.578125 224.53125 197.578125 224.53125 198 225.375 L 198.75 225.375 C 198.546875 223.273438 198.164062 221.441406 197.414062 219.46875 L 197.117188 218.6875 C 196.117188 216.164062 194.753906 214.046875 193.125 211.875 L 192.257812 210.65625 C 190.410156 208.765625 188.089844 206.898438 185.625 205.875 Z M 227.625 126.375 L 228.375 126.375 C 229.910156 129.097656 230.128906 131.511719 230.109375 134.601562 L 230.144531 135.871094 C 230.148438 137.546875 230.09375 138.976562 229.441406 140.535156 C 228.882812 141.488281 228.289062 142.367188 227.625 143.25 L 227.042969 144.042969 C 226.472656 144.789062 225.882812 145.527344 225.28125 146.25 L 224.640625 147.027344 C 222.261719 149.890625 219.671875 152.472656 216.839844 154.890625 C 215.980469 155.640625 215.148438 156.417969 214.320312 157.203125 C 211.632812 159.726562 208.808594 162.015625 205.875 164.25 L 205.875 163.125 C 206.429688 162.445312 206.429688 162.445312 207.234375 161.625 C 211.675781 156.835938 215.265625 151.21875 219 145.875 L 218.625 145.875 C 217.269531 147.101562 216.03125 148.445312 214.851562 149.835938 C 212.101562 153.019531 209.121094 155.96875 205.914062 158.691406 C 204.847656 159.613281 203.816406 160.574219 202.78125 161.53125 L 202.148438 162.117188 C 201.316406 162.886719 200.484375 163.65625 199.65625 164.425781 C 197.0625 166.84375 194.441406 169.214844 191.625 171.375 L 190.675781 172.132812 C 188.765625 173.222656 186.753906 173.730469 184.640625 174.304688 L 183.355469 174.671875 C 180.191406 175.546875 180.191406 175.546875 178.5 175.125 L 183.375 170.25 C 181.84375 170.632812 180.839844 171.167969 179.484375 171.960938 L 178.785156 172.359375 C 177.601562 173.035156 176.445312 173.734375 175.3125 174.492188 C 173.625 175.585938 172.070312 176.5 170.058594 176.867188 C 163.003906 177.078125 155.898438 174.542969 149.25 172.5 L 149.25 172.125 L 149.976562 172.101562 C 156.617188 171.886719 163.046875 171.558594 169.5 169.875 L 168.269531 169.847656 C 155.554688 169.425781 144.023438 165.929688 132.75 160.125 L 133.5 159.75 C 134.332031 159.84375 135.160156 159.964844 135.984375 160.101562 L 137.335938 160.324219 L 138.375 160.5 L 137.574219 160.222656 C 133.992188 158.863281 130.601562 156.851562 127.875 154.125 C 128.015625 152.953125 128.015625 152.953125 128.25 151.875 C 129.507812 152.132812 130.550781 152.605469 131.695312 153.179688 C 145.839844 160.171875 160.480469 163.679688 176.34375 162.671875 C 182.042969 162.207031 187.519531 161.03125 193.035156 159.5625 C 193.875 159.375 193.875 159.375 195 159.375 L 195 158.625 L 194.3125 158.777344 L 193.359375 158.976562 L 192.4375 159.175781 C 189.023438 159.75 185.625 159.820312 182.171875 159.820312 C 181.351562 159.820312 180.535156 159.828125 179.714844 159.835938 C 179.1875 159.835938 178.664062 159.835938 178.140625 159.835938 L 176.710938 159.839844 C 175.574219 159.753906 174.949219 159.601562 174 159 L 174.765625 158.777344 C 189.257812 154.535156 205.378906 148.503906 216.167969 137.464844 C 216.820312 136.804688 217.5 136.1875 218.203125 135.585938 C 219.605469 134.378906 220.984375 133.148438 222.363281 131.914062 C 223.125 131.25 223.125 131.25 224.109375 130.523438 C 225.28125 129.503906 226.132812 128.3125 227.042969 127.058594 Z M 265.125 193.125 C 267.242188 194.726562 268.753906 196.585938 270.347656 198.679688 C 271.472656 200.148438 272.628906 201.464844 274.035156 202.675781 C 274.5 203.25 274.5 203.25 274.765625 204.046875 C 274.910156 205.464844 274.535156 206.601562 274.101562 207.929688 L 273.839844 208.765625 C 273.566406 209.644531 273.28125 210.527344 273 211.40625 C 272.640625 212.542969 272.28125 213.683594 271.921875 214.824219 L 271.636719 215.726562 C 270.875 218.167969 270.175781 220.628906 269.492188 223.09375 C 268.167969 227.859375 266.816406 232.609375 265.410156 237.351562 C 265.140625 238.261719 264.875 239.175781 264.613281 240.089844 C 263.035156 245.585938 261.390625 250.367188 258 255 C 257.621094 255.558594 257.238281 256.117188 256.859375 256.675781 C 256.539062 257.128906 256.214844 257.574219 255.890625 258.023438 C 255.511719 258.550781 255.132812 259.082031 254.753906 259.613281 L 254.152344 260.457031 C 253.160156 261.851562 252.1875 263.261719 251.214844 264.667969 C 248.914062 267.996094 246.601562 271.300781 244.125 274.5 L 243.75 273.375 C 244.015625 272.320312 244.015625 272.320312 244.457031 271.015625 L 244.953125 269.523438 L 245.226562 268.722656 C 245.710938 267.28125 246.1875 265.835938 246.660156 264.390625 L 246.960938 263.464844 C 248.921875 257.441406 250.644531 251.34375 252.375 245.25 L 252.621094 244.382812 C 256.890625 229.378906 260.308594 214.132812 263.632812 198.894531 L 263.855469 197.875 C 263.992188 197.253906 264.125 196.628906 264.261719 196.007812 C 264.707031 193.957031 264.707031 193.957031 265.125 193.125 M 130.5 2.25 C 133.328125 2.027344 135.746094 2.726562 138.375 3.75 C 139.703125 4.40625 140.914062 5.152344 142.125 6 L 142.832031 6.460938 C 145.195312 8.191406 146.519531 10.90625 147.75 13.5 C 150.921875 20.796875 151.421875 30.136719 150.667969 37.964844 C 149.960938 43.570312 147.554688 48.78125 144.75 53.625 L 144.375 52.5 C 144.585938 51.570312 144.585938 51.570312 144.914062 50.554688 L 145.242188 49.53125 L 145.5 48.75 L 145.167969 49.386719 C 143.953125 51.554688 142.535156 53.449219 140.929688 55.335938 L 140.335938 56.039062 C 139.824219 56.625 139.289062 57.191406 138.75 57.75 L 137.625 58.125 C 138.421875 55.476562 139.628906 52.988281 140.761719 50.46875 C 141.675781 48.410156 142.410156 46.457031 142.875 44.25 L 142.15625 44.871094 C 139.414062 47.179688 136.546875 49.117188 133.5 51 C 133.5 49.492188 134.1875 48.476562 134.882812 47.179688 C 138.210938 40.757812 139.03125 34.59375 138.820312 27.40625 C 138.636719 24.414062 137.863281 21.570312 136.613281 18.847656 L 136.125 17.625 L 136.5 16.5 L 142.125 22.125 C 141.773438 19.265625 141.773438 19.265625 140.695312 16.828125 L 140.085938 15.671875 C 139.441406 14.523438 138.769531 13.441406 138 12.375 C 139.40625 12.566406 140.5 12.832031 141.75 13.5 C 139.765625 9.835938 137.792969 6.5625 134.179688 4.335938 C 132.984375 3.660156 131.78125 3.113281 130.5 2.625 Z M 89.625 25.125 C 91.078125 24.832031 92.296875 24.824219 93.75 25.125 C 95.726562 26.164062 97.371094 27.746094 99 29.25 L 99.597656 29.796875 C 101.878906 31.898438 103.808594 34.070312 105.375 36.75 C 104.570312 33.355469 103.332031 30.210938 102 27 C 101.75 26.375 101.5 25.75 101.25 25.125 C 102.210938 24.960938 102.210938 24.960938 103.5 25.125 C 106.1875 26.871094 107.992188 30.238281 109.5 33 C 112.765625 39.449219 114.027344 46.019531 113.695312 53.21875 C 112.832031 67.597656 109.894531 81.066406 101.90625 93.21875 C 100.996094 94.574219 100.039062 95.867188 99 97.125 C 99.554688 94.394531 100.339844 91.78125 101.203125 89.132812 L 101.589844 87.9375 C 102.460938 85.246094 103.351562 82.558594 104.25 79.875 L 103.5 79.875 L 103.242188 80.800781 C 102.632812 82.4375 101.796875 83.832031 100.875 85.3125 L 100.324219 86.203125 C 99.117188 88.144531 97.855469 90.050781 96.539062 91.921875 L 96.066406 92.601562 C 95.6875 93.125 95.285156 93.628906 94.875 94.125 L 94.125 94.125 C 93.804688 92.632812 93.71875 91.621094 94.101562 90.128906 C 94.28125 89.644531 94.46875 89.164062 94.664062 88.6875 L 94.972656 87.90625 C 96.664062 83.734375 98.761719 79.980469 101.625 76.5 C 105.335938 71.722656 108.457031 65.621094 109.5 59.625 C 109.828125 55.0625 109.972656 50.335938 108 46.125 C 104.96875 39.949219 100.847656 35.191406 95.625 30.75 L 95.035156 30.246094 C 94.382812 29.6875 93.726562 29.128906 93.070312 28.570312 L 92.429688 28.023438 C 91.519531 27.253906 90.621094 26.539062 89.625 25.875 Z M 89.625 25.125 "/><path style=" stroke:none;fill-rule:nonzero;fill:#fdfdfd;fill-opacity:1;" d="M 218.25 172.125 C 218.496094 172.710938 218.496094 172.710938 218.625 173.625 C 218.351562 174.523438 218.03125 175.40625 217.664062 176.273438 L 217.347656 177.03125 C 215.542969 181.277344 213.453125 184.855469 209.871094 187.863281 C 206.21875 190.566406 201.789062 192.65625 197.253906 193.21875 C 191.722656 193.785156 186.300781 193.464844 181.125 191.25 C 180.378906 190.863281 179.640625 190.472656 178.902344 190.070312 C 176 188.515625 176 188.515625 172.78125 187.945312 C 169.214844 188.222656 166.132812 190.003906 163.183594 191.914062 C 162.398438 192.363281 161.75 192.550781 160.875 192.75 C 161.351562 189.867188 162.183594 187.199219 163.171875 184.453125 L 163.59375 183.257812 C 163.9375 182.296875 164.28125 181.335938 164.625 180.375 L 165.535156 180.382812 C 166.910156 180.386719 168.289062 180.394531 169.664062 180.398438 L 171.097656 180.40625 C 173.597656 180.414062 176.019531 180.34375 178.5 180 C 178.667969 180.40625 178.835938 180.8125 179.007812 181.234375 L 179.695312 182.859375 L 180.027344 183.667969 C 180.796875 185.476562 181.640625 186.824219 183 188.25 C 183.808594 188.882812 183.808594 188.882812 184.617188 189.328125 L 185.410156 189.792969 L 186 190.125 L 185.535156 189.011719 C 182.816406 182.441406 182.816406 182.441406 183 178.875 L 184.054688 179.8125 C 187.59375 182.824219 190.914062 185.101562 195.492188 186.117188 C 197.867188 186.507812 200.117188 186.257812 202.5 186 L 198 184.5 L 198 184.125 L 199.140625 184.027344 C 203.453125 183.605469 207.230469 182.6875 210.890625 180.234375 C 213.945312 177.9375 216.074219 175.253906 218.25 172.125 M 127.5 130.125 C 129.503906 130.296875 130.894531 131.410156 132.515625 132.492188 C 136.574219 135.125 140.800781 137.339844 145.125 139.5 L 146.070312 139.976562 C 153.160156 143.539062 160.558594 145.9375 168.140625 148.21875 L 169.109375 148.511719 C 173.214844 149.742188 177.332031 150.875 181.5 151.875 C 178.84375 153.644531 175.226562 154.53125 172.101562 155.074219 C 171.070312 155.113281 170.144531 155.03125 169.125 154.875 L 167.691406 154.664062 C 152.660156 152.042969 137.964844 141.894531 125.625 133.5 C 125.917969 132.050781 126.535156 131.246094 127.5 130.125 M 232.125 193.875 C 232.425781 194.761719 232.511719 195.316406 232.34375 196.246094 C 232.199219 196.726562 232.199219 196.726562 232.054688 197.214844 L 231.734375 198.304688 L 231.375 199.476562 L 231.007812 200.695312 C 230.632812 201.921875 230.257812 203.148438 229.875 204.375 L 229.550781 205.433594 C 226.675781 214.820312 222.375 223.464844 216.890625 231.585938 L 216.199219 232.613281 C 214.65625 234.851562 212.976562 236.886719 211.125 238.875 L 210.75 238.125 C 210.980469 237.433594 210.980469 237.433594 211.375 236.570312 L 211.820312 235.566406 L 212.320312 234.445312 C 214.042969 230.441406 215.476562 226.378906 216.820312 222.234375 L 217.117188 221.332031 C 218.078125 218.382812 218.992188 215.453125 219.644531 212.417969 C 221.03125 206.011719 221.03125 206.011719 223.070312 203.660156 C 224.390625 202.296875 225.804688 201.058594 227.242188 199.824219 C 229.011719 198.195312 230.351562 196.191406 231.75 194.25 Z M 234.375 154.875 C 237.335938 158.492188 238.992188 163.679688 239.792969 168.199219 C 240.160156 173.070312 236.777344 178.363281 234.769531 182.597656 C 233.753906 184.699219 232.648438 186.671875 231.375 188.625 C 230.996094 187.414062 231.023438 187.003906 231.300781 185.679688 C 231.457031 185.101562 231.621094 184.523438 231.785156 183.945312 L 232.039062 183.015625 C 232.304688 182.042969 232.578125 181.066406 232.851562 180.09375 C 233.035156 179.433594 233.21875 178.769531 233.398438 178.109375 C 233.84375 176.488281 234.296875 174.867188 234.75 173.25 C 233.640625 174.609375 232.730469 175.960938 231.867188 177.492188 C 231.464844 178.210938 231.050781 178.921875 230.625 179.625 L 230.25 179.625 C 230.40625 177.105469 230.738281 174.632812 231.164062 172.148438 L 231.304688 171.316406 C 231.496094 170.222656 231.6875 169.253906 232.183594 168.257812 L 232.5 167.625 L 232.125 166.5 C 232.214844 165.644531 232.34375 164.792969 232.484375 163.941406 L 232.609375 163.191406 C 232.699219 162.671875 232.785156 162.152344 232.878906 161.628906 C 233.015625 160.828125 233.148438 160.027344 233.28125 159.226562 C 233.761719 156.386719 233.761719 156.386719 234 155.25 Z M 234.375 154.875 "/><path style=" stroke:none;fill-rule:nonzero;fill:#fcfcfc;fill-opacity:1;" d="M 100.875 42.75 C 103.507812 45.15625 105.199219 48.671875 106.289062 52.03125 C 107.28125 55.675781 107.34375 58.574219 106.5 62.25 C 106.117188 63.566406 105.65625 64.839844 105.164062 66.117188 L 104.769531 67.148438 C 103.566406 70.164062 102.019531 72.75 100.125 75.375 C 97.453125 79.117188 94.789062 82.957031 93.375 87.375 L 93 87.375 C 92.492188 81.289062 92.492188 81.289062 93.789062 78.519531 C 94.316406 77.523438 94.871094 76.539062 95.449219 75.570312 C 96.113281 74.429688 96.742188 73.273438 97.371094 72.117188 C 101.460938 64.625 101.460938 64.625 103.429688 61.832031 C 104.351562 60.363281 104.558594 58.894531 104.707031 57.191406 C 104.871094 52.582031 103.425781 48.679688 101.410156 44.632812 C 100.875 43.5 100.875 43.5 100.875 42.75 "/><path style=" stroke:none;fill-rule:nonzero;fill:#fdfdfd;fill-opacity:1;" d="M 126 135.75 C 127.714844 136.679688 129.058594 137.878906 130.5 139.171875 C 132.976562 141.351562 135.601562 143.335938 138.375 145.125 C 138.6875 145.332031 139.003906 145.535156 139.324219 145.75 C 146.5 150.445312 153.882812 154.332031 162 157.125 L 160.875 157.875 C 156.175781 157.625 150.222656 156.582031 146.226562 154.03125 C 145.605469 153.570312 144.988281 153.101562 144.375 152.625 C 143.519531 152.039062 142.660156 151.460938 141.796875 150.890625 L 141.09375 150.417969 C 139.007812 149.023438 136.878906 147.707031 134.742188 146.390625 C 133.75 145.777344 132.757812 145.164062 131.765625 144.550781 C 131.210938 144.207031 130.652344 143.863281 130.097656 143.523438 C 129.457031 143.121094 128.816406 142.71875 128.179688 142.3125 L 127.15625 141.667969 C 126.375 141 126.375 141 125.890625 140.066406 C 125.546875 138.84375 125.554688 137.761719 125.625 136.5 Z M 207.75 171 C 206.011719 174.566406 204.160156 177.597656 201.078125 180.1875 C 199.671875 181.078125 198.277344 181.21875 196.628906 181.300781 C 193.667969 181.351562 190.9375 180.957031 188.25 179.625 C 187.609375 179.144531 186.984375 178.644531 186.375 178.125 C 187.496094 177.601562 188.621094 177.082031 189.75 176.566406 C 190.761719 176.101562 191.769531 175.625 192.773438 175.136719 C 195.996094 173.601562 199.207031 172.445312 202.664062 171.539062 L 203.800781 171.238281 C 206.476562 170.574219 206.476562 170.574219 207.75 171 M 136.875 171.75 L 137.484375 171.984375 C 139.542969 172.773438 141.601562 173.554688 143.664062 174.335938 C 144.355469 174.601562 145.042969 174.863281 145.730469 175.125 C 149.613281 176.609375 153.457031 177.902344 157.5 178.875 L 157.5 179.625 C 154.722656 181.144531 151.839844 182.269531 148.640625 182.390625 C 146.515625 182.300781 144.65625 181.730469 142.824219 180.65625 C 140.183594 178.8125 138.546875 176.382812 137.125 173.535156 C 136.875 172.875 136.875 172.875 136.875 171.75 "/><path style=" stroke:none;fill-rule:nonzero;fill:#fcfcfb;fill-opacity:1;" d="M 277.5 207.375 C 278.792969 208.652344 280.050781 209.964844 281.273438 211.3125 L 282.222656 212.355469 L 283.125 213.375 L 284.015625 214.347656 L 284.625 215.25 C 284.601562 216.25 284.238281 216.769531 283.730469 217.628906 L 283.03125 218.648438 L 282.226562 219.828125 L 281.765625 220.496094 C 281.167969 221.371094 280.574219 222.25 279.980469 223.128906 L 278.648438 225.09375 L 277.988281 226.070312 L 277.371094 226.976562 L 276.816406 227.792969 L 276.375 228.375 L 276 228.375 C 276.097656 226.335938 276.199219 224.296875 276.300781 222.253906 L 276.402344 220.179688 C 276.972656 208.429688 276.972656 208.429688 277.5 207.375 "/><path style=" stroke:none;fill-rule:nonzero;fill:#faf9f9;fill-opacity:1;" d="M 110.25 27.375 C 113.398438 30.238281 115.535156 33.910156 117 37.875 C 119.734375 46.558594 119.058594 55.679688 117.375 64.5 L 117 64.5 C 117.003906 64.246094 117.007812 63.992188 117.011719 63.730469 C 117.167969 51.933594 116.421875 39.363281 110.582031 28.78125 C 110.25 28.125 110.25 28.125 110.25 27.375 "/><path style=" stroke:none;fill-rule:nonzero;fill:#fcfcfc;fill-opacity:1;" d="M 157.875 187.5 L 158.625 187.5 C 158.824219 188.148438 159.019531 188.796875 159.210938 189.445312 L 159.539062 190.539062 C 159.757812 191.671875 159.679688 192.398438 159.375 193.5 C 157.101562 194.300781 155.042969 194.339844 152.648438 194.296875 L 151.546875 194.285156 C 150.65625 194.277344 149.765625 194.265625 148.875 194.25 C 149.863281 193.496094 150.808594 192.882812 151.921875 192.328125 C 154.203125 191.089844 156.046875 189.328125 157.875 187.5 "/><path style=" stroke:none;fill-rule:nonzero;fill:#faf9fa;fill-opacity:1;" d="M 127.5 144.75 C 129.148438 144.984375 130.492188 145.613281 131.953125 146.367188 L 132.714844 146.753906 C 133.601562 147.210938 134.488281 147.667969 135.375 148.125 L 136.484375 148.695312 C 137.664062 149.300781 138.839844 149.90625 140.015625 150.515625 L 141.171875 151.109375 L 142.25 151.671875 L 143.21875 152.175781 C 144 152.625 144 152.625 144.75 153.375 C 142.589844 153.148438 140.765625 152.355469 138.796875 151.5 L 137.75 151.046875 C 135.515625 150.0625 133.339844 149.007812 131.203125 147.820312 L 130.457031 147.410156 C 129.183594 146.679688 128.273438 146.007812 127.5 144.75 "/><path style=" stroke:none;fill-rule:nonzero;fill:#e6e5e4;fill-opacity:1;" d="M 89.625 25.125 L 93.375 25.125 L 93 25.875 C 92.007812 26.097656 91.015625 26.152344 90 26.25 Z M 89.625 25.125 "/><path style=" stroke:none;fill-rule:nonzero;fill:#bab7bd;fill-opacity:1;" d="M 161.625 271.125 L 165.375 271.125 L 165 271.875 C 164.34375 272.15625 164.34375 272.15625 163.5 272.25 C 162.46875 271.898438 162.46875 271.898438 161.625 271.5 Z M 161.625 271.125 "/><path style=" stroke:none;fill-rule:nonzero;fill:#dae1e9;fill-opacity:1;" d="M 147 275.25 L 147.75 275.625 Z M 147 275.25 "/><path style=" stroke:none;fill-rule:nonzero;fill:#fefefe;fill-opacity:1;" d="M 148.5 171.75 L 149.25 172.125 Z M 148.5 171.75 "/><path style=" stroke:none;fill-rule:nonzero;fill:#e4e3e2;fill-opacity:1;" d="M 144.75 153.375 L 145.5 153.75 Z M 144.75 153.375 "/></g></svg>